<svg width="170" height="34" viewBox="0 0 170 34" fill="none" xmlns="http://www.w3.org/2000/svg">
<path d="M153.168 34C143.881 34 136.336 26.3793 136.336 17C136.336 7.62069 143.881 0 153.168 0C162.454 0 169.999 7.62069 169.999 17C169.999 26.3793 162.454 34 153.168 34ZM153.168 3.86897C146.029 3.86897 140.167 9.73104 140.167 17C140.167 24.269 145.971 30.131 153.168 30.131C160.365 30.131 166.169 24.269 166.169 17C166.169 9.73104 160.307 3.86897 153.168 3.86897Z" fill="white"/>
<path d="M153.167 27.4354L142.777 16.9423L153.167 6.44922L163.498 16.9423L153.167 27.4354ZM147.595 16.9423L153.167 22.5699L158.738 16.9423L153.167 11.3147L147.595 16.9423Z" fill="white"/>
<path d="M114.398 9.67188H117.823L124.788 20.165V9.67188H128.386V25.8512H125.078L117.997 15.1822V25.8512H114.398V9.67188Z" fill="white"/>
<path d="M103.948 26.2617C102.787 26.2617 101.685 26.0272 100.64 25.6169C99.5952 25.2065 98.7246 24.5617 98.0281 23.7997C97.2736 23.0376 96.6932 22.1583 96.2869 21.1031C95.8806 20.0479 95.6484 18.9341 95.6484 17.7617C95.6484 16.5307 95.8806 15.4169 96.2869 14.4203C96.6932 13.3652 97.2736 12.4859 98.0281 11.7238C98.7826 10.9617 99.6532 10.3755 100.64 9.90655C101.627 9.4962 102.729 9.26172 103.948 9.26172C105.167 9.26172 106.212 9.4962 107.257 9.90655C108.301 10.3169 109.172 10.9617 109.868 11.7238C110.623 12.4859 111.203 13.3652 111.61 14.4203C112.016 15.4755 112.248 16.5893 112.248 17.7617C112.248 18.9341 112.016 20.0479 111.61 21.1031C111.203 22.1583 110.623 23.0376 109.868 23.7997C109.114 24.5617 108.243 25.1479 107.257 25.6169C106.27 26.0859 105.109 26.2617 103.948 26.2617ZM103.948 22.8031C104.645 22.8031 105.283 22.6859 105.864 22.3928C106.444 22.0997 106.908 21.7479 107.315 21.279C107.721 20.81 108.011 20.2824 108.185 19.6376C108.417 19.0514 108.475 18.3479 108.475 17.7031C108.475 16.9997 108.359 16.3548 108.185 15.7686C107.953 15.1824 107.663 14.5962 107.315 14.1859C106.908 13.7169 106.444 13.3652 105.864 13.0721C105.283 12.779 104.645 12.6617 103.948 12.6617C103.252 12.6617 102.613 12.779 102.033 13.0721C101.452 13.3652 100.988 13.7169 100.582 14.1859C100.176 14.6548 99.8854 15.1824 99.7113 15.7686C99.4791 16.3548 99.4211 17.0583 99.4211 17.7031C99.4211 18.4065 99.5371 19.0514 99.7113 19.6376C99.9434 20.2238 100.234 20.81 100.582 21.279C100.988 21.7479 101.452 22.0997 102.033 22.3928C102.613 22.6859 103.252 22.8031 103.948 22.8031Z" fill="white"/>
<path d="M81.894 9.67188H87.8721C88.8588 9.67188 89.7294 9.78912 90.3679 10.0236C91.0644 10.2581 91.5867 10.5512 92.051 10.9615C92.4573 11.3719 92.8056 11.7822 92.9797 12.3098C93.1538 12.8374 93.2699 13.365 93.2699 13.8926C93.2699 14.4202 93.1538 14.8891 92.9797 15.2408C92.8056 15.6512 92.5734 16.0029 92.3412 16.2374C92.1091 16.5305 91.8189 16.765 91.5287 16.8822C91.2385 17.0581 91.0063 17.1753 90.8322 17.1753C91.1224 17.2339 91.4706 17.3512 91.8189 17.527C92.1671 17.7029 92.5734 17.9374 92.8636 18.2305C93.1538 18.5236 93.5021 18.9339 93.7342 19.4029C93.9664 19.8719 94.0825 20.4581 94.0825 21.1029C94.0825 21.9236 93.9083 22.6271 93.6181 23.2133C93.3279 23.7995 92.9216 24.2684 92.3993 24.6202C91.8769 24.9719 91.1804 25.265 90.4259 25.4408C89.6714 25.6167 88.8008 25.6753 87.8141 25.6753H81.8359V9.67188H81.894ZM87.5239 16.1202C87.8141 16.1202 88.0463 16.0615 88.3365 16.0029C88.6267 15.9443 88.8588 15.827 89.0329 15.7098C89.2071 15.5926 89.3812 15.3581 89.4973 15.1236C89.6133 14.8891 89.6714 14.596 89.6714 14.2443C89.6714 13.8926 89.6133 13.5995 89.4973 13.365C89.3812 13.1305 89.2071 12.9546 88.9749 12.7788C88.7427 12.6615 88.5106 12.5443 88.2784 12.4857C87.9882 12.427 87.7561 12.427 87.5239 12.427H85.3764V16.0615H87.5239V16.1202ZM87.7561 23.0374C87.9882 23.0374 88.2784 23.0374 88.6267 22.9788C88.9749 22.9202 89.2651 22.8615 89.4973 22.6857C89.7875 22.5684 90.0196 22.3339 90.1937 22.0408C90.3679 21.7477 90.4839 21.396 90.4839 20.927C90.4839 20.5167 90.3679 20.165 90.1937 19.8719C90.0196 19.5788 89.7875 19.4029 89.4973 19.227C89.2071 19.0512 88.9169 18.9926 88.6267 18.9339C88.2784 18.8753 87.9882 18.8753 87.7561 18.8753H85.4344V23.096H87.7561V23.0374Z" fill="white"/>
<path d="M67.2104 9.67188H73.1305C74.0591 9.67188 74.8717 9.78912 75.5682 10.0822C76.2647 10.3753 76.8451 10.727 77.3094 11.196C77.7737 11.665 78.122 12.1926 78.3541 12.7788C78.5863 13.365 78.7024 14.0684 78.7024 14.7133C78.7024 15.7684 78.4702 16.7064 78.0059 17.4684C77.5416 18.2305 76.9031 18.8753 76.0906 19.3443L79.631 25.7926H75.6262L72.7242 19.8719H70.6928V25.7926H67.1523V9.67188H67.2104ZM72.9564 16.9408C73.6529 16.9408 74.1752 16.765 74.5235 16.3546C74.9297 15.9443 75.1039 15.4167 75.1039 14.8305C75.1039 14.1857 74.9297 13.6581 74.5235 13.2477C74.1172 12.8374 73.5948 12.6615 72.9564 12.6615H70.7508V16.9408H72.9564Z" fill="white"/>
<path d="M55.4865 9.67188H59.4913L65.3534 25.8512H61.4066L60.1878 22.1581H54.5579L53.339 25.8512H49.5664L55.4865 9.67188ZM59.3172 19.2857L57.4018 13.1891L55.3704 19.2857H59.3172Z" fill="white"/>
<path d="M49.2199 22.8617C48.8717 23.3307 48.4654 23.741 48.0011 24.21C47.5368 24.6789 47.0144 24.9134 46.434 25.2651C45.8536 25.5582 45.2152 25.7927 44.5187 25.9686C43.8222 26.1444 43.1257 26.2617 42.3712 26.2617C41.1523 26.2617 40.0496 26.0272 39.0629 25.6169C38.0762 25.2065 37.2056 24.6203 36.4511 23.8582C35.6965 23.0962 35.1742 22.2169 34.7679 21.2203C34.3616 20.2238 34.1875 19.0513 34.1875 17.8203C34.1875 16.6479 34.3616 15.5341 34.7679 14.4789C35.1742 13.4238 35.7546 12.5445 36.4511 11.7824C37.2056 11.0203 38.0762 10.4341 39.0629 9.96514C40.0496 9.49617 41.2104 9.32031 42.4292 9.32031C43.9383 9.32031 45.2152 9.61342 46.3179 10.141C47.4207 10.6686 48.3493 11.4893 49.1039 12.4858L46.6081 14.8893C46.1438 14.1858 45.5634 13.6582 44.925 13.2479C44.2865 12.8376 43.4739 12.6031 42.6033 12.6031C41.9069 12.6031 41.2104 12.7203 40.688 13.0134C40.1076 13.3065 39.6433 13.6582 39.237 14.1272C38.8307 14.5962 38.5405 15.1238 38.3084 15.7686C38.0762 16.4134 37.9601 17.0582 37.9601 17.7617C37.9601 18.4651 38.0762 19.11 38.3084 19.7548C38.5405 20.341 38.8307 20.9272 39.237 21.3376C39.6433 21.8065 40.1076 22.1582 40.688 22.3927C41.2684 22.6272 41.9069 22.8031 42.6033 22.8031C43.1837 22.8031 43.7061 22.7444 44.1124 22.6272C44.5187 22.51 44.925 22.3341 45.2152 22.1582C45.5634 21.9824 45.8536 21.7479 46.0858 21.4548C46.3179 21.1617 46.6081 20.9272 46.8403 20.6341L49.2199 22.8617Z" fill="white"/>
<path d="M24.8414 12.896H19.6758V9.67188H33.6635V12.896H28.4979V25.8512H24.8414V12.896Z" fill="white"/>
<path d="M14.3359 9.67188H17.9925V25.8512H14.394V9.67188H14.3359Z" fill="white"/>
<path d="M0 9.67188H5.97815C6.96483 9.67188 7.83544 9.78912 8.47388 10.0236C9.17037 10.2581 9.69273 10.5512 10.1571 10.9615C10.5633 11.3719 10.9116 11.7822 11.0857 12.3098C11.2598 12.8374 11.3759 13.365 11.3759 13.8926C11.3759 14.4202 11.2598 14.8891 11.0857 15.2408C10.9116 15.6512 10.6794 16.0029 10.4473 16.2374C10.2151 16.5305 9.92489 16.765 9.63469 16.8822C9.34449 17.0581 9.11232 17.1753 8.9382 17.1753C9.2284 17.2339 9.57665 17.3512 9.92489 17.527C10.2731 17.7029 10.6794 17.9374 10.9696 18.2305C11.2598 18.5236 11.6081 18.9339 11.8402 19.4029C12.0724 19.8719 12.1885 20.4581 12.1885 21.1029C12.1885 21.9236 12.0143 22.6271 11.7241 23.2133C11.4339 23.7995 11.0277 24.2684 10.5053 24.6202C9.98293 24.9719 9.28645 25.265 8.53192 25.4408C7.7774 25.6167 6.90679 25.6753 5.92011 25.6753H0V9.67188ZM5.62991 16.1202C5.92011 16.1202 6.15227 16.0615 6.44247 16.0029C6.73267 15.9443 6.96483 15.827 7.13896 15.7098C7.31308 15.5926 7.4872 15.3581 7.60328 15.1236C7.71936 14.8891 7.7774 14.596 7.7774 14.2443C7.7774 13.8926 7.71936 13.5995 7.60328 13.365C7.4872 13.1305 7.31308 12.9546 7.08091 12.7788C6.84875 12.6615 6.61659 12.5443 6.38443 12.4857C6.09423 12.427 5.86207 12.427 5.62991 12.427H3.54046V16.0615H5.62991V16.1202ZM5.86207 23.0374C6.09423 23.0374 6.38443 23.0374 6.73267 22.9788C7.08091 22.9202 7.37112 22.8615 7.60328 22.6857C7.89348 22.5684 8.12564 22.3339 8.29976 22.0408C8.47388 21.7477 8.58996 21.396 8.58996 20.927C8.58996 20.5167 8.47388 20.165 8.29976 19.8719C8.12564 19.5788 7.89348 19.4029 7.60328 19.227C7.31308 19.0512 7.02287 18.9926 6.73267 18.9339C6.38443 18.8753 6.09423 18.8753 5.86207 18.8753H3.54046V23.096H5.86207V23.0374Z" fill="white"/>
</svg>
