<svg width="24" height="24" viewBox="0 0 24 24" fill="none" xmlns="http://www.w3.org/2000/svg">
<path d="M12 24C5.37931 24 0 18.6207 0 12C0 5.37931 5.37931 0 12 0C18.6207 0 24 5.37931 24 12C24 18.6207 18.6207 24 12 24ZM12 2.73103C6.91035 2.73103 2.73104 6.86897 2.73104 12C2.73104 17.131 6.86897 21.269 12 21.269C17.131 21.269 21.269 17.131 21.269 12C21.269 6.86897 17.0897 2.73103 12 2.73103Z" fill="#FFF"/>
<path d="M12.0006 19.3646L4.59375 11.9577L12.0006 4.55078L19.3662 11.9577L12.0006 19.3646ZM8.02823 11.9577L12.0006 15.9301L15.9731 11.9577L12.0006 7.98526L8.02823 11.9577Z" fill="#FFF"/>
</svg>
