<svg width="18" height="18" viewBox="0 0 24 24" fill="none" xmlns="http://www.w3.org/2000/svg">
<rect x="0.716688" width="5.17378" height="5.17378" transform="matrix(0.716688 -0.697394 0.716688 0.697394 7.70305 12.6287)" fill="#703DD3" stroke="#703DD3"/>
<mask id="path-2-inside-1" fill="white">
<path fill-rule="evenodd" clip-rule="evenodd" d="M12 18.8824C15.801 18.8824 18.8824 15.801 18.8824 12C18.8824 8.19898 15.801 5.11765 12 5.11765C8.19898 5.11765 5.11765 8.19898 5.11765 12C5.11765 15.801 8.19898 18.8824 12 18.8824ZM12 21C16.9706 21 21 16.9706 21 12C21 7.02944 16.9706 3 12 3C7.02944 3 3 7.02944 3 12C3 16.9706 7.02944 21 12 21Z"/>
</mask>
<path fill-rule="evenodd" clip-rule="evenodd" d="M12 18.8824C15.801 18.8824 18.8824 15.801 18.8824 12C18.8824 8.19898 15.801 5.11765 12 5.11765C8.19898 5.11765 5.11765 8.19898 5.11765 12C5.11765 15.801 8.19898 18.8824 12 18.8824ZM12 21C16.9706 21 21 16.9706 21 12C21 7.02944 16.9706 3 12 3C7.02944 3 3 7.02944 3 12C3 16.9706 7.02944 21 12 21Z" fill="#703DD3"/>
<path d="M14.8824 12C14.8824 13.5919 13.5919 14.8824 12 14.8824V22.8824C18.0102 22.8824 22.8824 18.0102 22.8824 12H14.8824ZM12 9.11765C13.5919 9.11765 14.8824 10.4081 14.8824 12H22.8824C22.8824 5.98984 18.0102 1.11765 12 1.11765V9.11765ZM9.11765 12C9.11765 10.4081 10.4081 9.11765 12 9.11765V1.11765C5.98984 1.11765 1.11765 5.98984 1.11765 12H9.11765ZM12 14.8824C10.4081 14.8824 9.11765 13.5919 9.11765 12H1.11765C1.11765 18.0102 5.98984 22.8824 12 22.8824V14.8824ZM17 12C17 14.7614 14.7614 17 12 17V25C19.1797 25 25 19.1797 25 12H17ZM12 7C14.7614 7 17 9.23858 17 12H25C25 4.8203 19.1797 -1 12 -1V7ZM7 12C7 9.23858 9.23858 7 12 7V-1C4.8203 -1 -1 4.8203 -1 12H7ZM12 17C9.23858 17 7 14.7614 7 12H-1C-1 19.1797 4.8203 25 12 25V17Z" fill="#703DD3" mask="url(#path-2-inside-1)"/>
</svg>
